<?xml version="1.0" encoding="UTF-8"?>
<svg xmlns="http://www.w3.org/2000/svg" width="477" height="132" viewBox="0 0 477 132" fill="none">
  <path d="M45.6426 33.5844L71.0691 19.4123V11.6712C71.0691 5.18057 64.0426 1.13139 58.4452 4.40646L49.8109 9.4084L45.6426 33.5844Z" fill="#E8D044"></path>
  <path d="M44.273 41.5637L39.4497 69.7293L71.0691 59.3086V42.9928V26.6174L44.273 41.5637Z" fill="#EF7028"></path>
  <path d="M37.2466 45.4343L16.167 57.2246L31.2919 65.9184L33.5547 67.2285L37.2466 45.4343Z" fill="#79A937"></path>
  <path d="M45.7021 74.255L58.4452 81.5793C64.0426 84.7948 71.0691 80.7456 71.0691 74.3146V65.9185L45.7021 74.255Z" fill="#5C72B3"></path>
  <path d="M38.6161 37.5146L42.7249 13.4576L31.2919 20.0673L4.19805 35.7282C-1.39935 38.9437 -1.39935 47.0421 4.19805 50.3171L9.855 53.5922L38.6161 37.5146Z" fill="#3CC3EF"></path>
  <path d="M217.019 43.5883C228.43 43.5883 237.681 33.8307 237.681 21.7941C237.681 9.75757 228.43 0 217.019 0C205.607 0 196.356 9.75757 196.356 21.7941C196.356 33.8307 205.607 43.5883 217.019 43.5883Z" fill="#192B58"></path>
  <path d="M217.018 51.6272C210.349 51.6272 204.275 49.1858 199.393 45.1366V127.728H234.585V45.1366C229.761 49.1858 223.628 51.6272 217.018 51.6272Z" fill="#192B58"></path>
  <path d="M171.941 120.642C162.831 128.085 149.849 131.837 132.998 131.837C116.146 131.837 103.284 128.085 94.3518 120.642C85.3603 113.199 80.5965 103.135 80.1797 90.5112H116.086C116.503 95.5727 118.111 99.0859 120.91 101.051C123.708 103.016 127.936 104.028 133.653 104.028C143.657 104.028 148.599 101.349 148.599 95.9895C148.599 93.3694 147.408 91.3449 145.086 89.9157C142.704 88.4866 138.476 87.3552 132.343 86.462L118.528 84.497C107.274 82.8297 98.5201 78.9591 92.2677 72.7067C86.0153 66.5138 82.9188 58.1177 82.9188 47.6375C82.9188 37.3359 86.0748 28.642 92.3868 21.6155C99.7706 13.398 112.871 9.28931 131.688 9.28931C163.248 9.28931 180.04 22.211 182.064 47.9352H148.42C148.004 44.1242 146.574 41.266 144.252 39.4796C141.87 37.6932 138.119 36.7404 132.998 36.7404C123.768 36.7404 119.183 39.2414 119.183 44.3029C119.183 48.5902 122.756 51.2103 129.961 52.2226L143.776 54.1876C158.127 56.2718 168.666 60.2019 175.336 66.0375C182.005 71.873 185.339 79.9714 185.339 90.3921C185.339 103.076 180.873 113.199 171.941 120.642Z" fill="#192B58"></path>
  <path d="M354.691 99.9196L356.001 117.188C356.537 123.024 357.43 126.954 358.74 129.038H321.523C320.213 126.537 319.499 122.547 319.261 117.188L318.784 105.517C318.546 99.9196 317.415 96.1086 315.33 94.0245C313.246 91.9404 303.659 90.8685 298.3 90.8685H285.736V129.038H249.353V11.8499H311.698C341.114 11.8499 355.822 23.3424 355.822 46.2679C355.822 60.321 350.106 69.6103 338.613 74.2549C343.794 76.22 347.605 79.2569 350.106 83.3061C352.607 87.3553 354.155 92.8931 354.691 99.9196ZM285.736 63.8342H306.041C314.437 63.8342 318.606 59.9637 318.606 52.1631C318.606 44.3624 314.437 40.4919 306.041 40.4919H285.736V63.8342Z" fill="#192B58"></path>
  <path d="M477 129.038H439.307L434.781 113.735H393.575L389.049 129.038H352.666L391.431 11.8499H435.853L477 129.038ZM409.236 59.5469L401.375 86.5216H426.802L418.882 59.5469C416.977 52.5203 415.369 46.6848 414.059 42.0996L409.236 59.5469Z" fill="#192B58"></path>
</svg>
